<?xml version="1.0" encoding="UTF-8" standalone="no"?>
<svg xmlns="http://www.w3.org/2000/svg" width="512" height="512" viewBox="0 0 512 512">
  <rect width="512" height="512" rx="50" fill="#3498db"/>
  <g fill="#ffffff">
    <!-- Notepad base -->
    <rect x="120" y="80" width="272" height="352" rx="10" fill="#f5f5f5"/>
    <!-- Notepad lines -->
    <rect x="150" y="150" width="212" height="4" fill="#bdc3c7"/>
    <rect x="150" y="190" width="212" height="4" fill="#bdc3c7"/>
    <rect x="150" y="230" width="212" height="4" fill="#bdc3c7"/>
    <rect x="150" y="270" width="212" height="4" fill="#bdc3c7"/>
    <rect x="150" y="310" width="212" height="4" fill="#bdc3c7"/>
    <rect x="150" y="350" width="212" height="4" fill="#bdc3c7"/>
    <!-- Pen -->
    <path d="M320 100 L380 160 L350 190 L290 130 Z" fill="#e74c3c"/>
    <path d="M290 130 L350 190 L330 210 L270 150 Z" fill="#c0392b"/>
    <rect x="265" y="145" width="10" height="70" rx="2" transform="rotate(45 270 150)" fill="#7f8c8d"/>
    <!-- Checkmark -->
    <path d="M180 240 L210 270 L250 210" stroke="#27ae60" stroke-width="12" fill="none" stroke-linecap="round" stroke-linejoin="round"/>
  </g>
</svg>
